HIERARCHY
ROOT Hips
{
  OFFSET 38.6681 98.8268 4.35986
  CHANNELS 6 Xposition Yposition Zposition Zrotation Xrotation Yrotation
  JOINT spine
  {
    OFFSET 0 8.30104 0.477351
    CHANNELS 3 Zrotation Xrotation Yrotation
    JOINT spine1
    {
      OFFSET 0 10.4565 0
      CHANNELS 3 Zrotation Xrotation Yrotation
      JOINT spine2
      {
        OFFSET 0 10.0192 0
        CHANNELS 3 Zrotation Xrotation Yrotation
        JOINT Neck
        {
          OFFSET 0 25.7235 1.22641
          CHANNELS 3 Zrotation Xrotation Yrotation
          JOINT Head
          {
            OFFSET 0 7.77175 0
            CHANNELS 3 Zrotation Xrotation Yrotation
            End Site
            {
              OFFSET 0 18.812 -6.20394
            }
          }
        }
        JOINT RightShoulder
        {
          OFFSET -4.2188 10.82 -0.587439
          CHANNELS 3 Zrotation Xrotation Yrotation
          JOINT RightArm
          {
            OFFSET 0 14.1914 0
            CHANNELS 3 Zrotation Xrotation Yrotation
            JOINT RightArmRoll
            {
              OFFSET 0 7.16409 0
              CHANNELS 3 Zrotation Xrotation Yrotation
              JOINT RightForeArm
              {
                OFFSET 0 20.8665 0
                CHANNELS 3 Zrotation Xrotation Yrotation
                JOINT RightForeArmRoll
                {
                  OFFSET 0 8.03921 0
                  CHANNELS 3 Zrotation Xrotation Yrotation
                  JOINT RightHand
                  {
                    OFFSET 0 16.133 0
                    CHANNELS 3 Zrotation Xrotation Yrotation
                    End Site
                    {
                      OFFSET 0 0 0
                    }
                  }
                }
              }
            }
          }
        }
        JOINT LeftShoulder
        {
          OFFSET 4.2188 10.82 -0.587439
          CHANNELS 3 Zrotation Xrotation Yrotation
          JOINT LeftArm
          {
            OFFSET 0 14.1914 0
            CHANNELS 3 Zrotation Xrotation Yrotation
            JOINT LeftArmRoll
            {
              OFFSET 0 7.16409 0
              CHANNELS 3 Zrotation Xrotation Yrotation
              JOINT LeftForeArm
              {
                OFFSET 0 20.8665 0
                CHANNELS 3 Zrotation Xrotation Yrotation
                JOINT LeftForeArmRoll
                {
                  OFFSET 0 8.03921 0
                  CHANNELS 3 Zrotation Xrotation Yrotation
                  JOINT LeftHand
                  {
                    OFFSET 0 16.133 0
                    CHANNELS 3 Zrotation Xrotation Yrotation
                    End Site
                    {
                      OFFSET 0 0 0
                    }
                  }
                }
              }
            }
          }
        }
      }
    }
  }
  JOINT RightUpLeg
  {
    OFFSET -7.35773 -1.34921 -1.13182
    CHANNELS 3 Zrotation Xrotation Yrotation
    JOINT RightUpLegRoll
    {
      OFFSET 0 18.9168 0
      CHANNELS 3 Zrotation Xrotation Yrotation
      JOINT RightLeg
      {
        OFFSET 0 -23.4256 0
        CHANNELS 3 Zrotation Xrotation Yrotation
        JOINT RightLegRoll
        {
          OFFSET 0 23.5023 0
          CHANNELS 3 Zrotation Xrotation Yrotation
          JOINT RightFoot
          {
            OFFSET 0 19.5617 0
            CHANNELS 3 Zrotation Xrotation Yrotation
            JOINT RightToeBase
            {
              OFFSET 0 16.3526 0
              CHANNELS 3 Zrotation Xrotation Yrotation
              End Site
              {
                OFFSET 0.00693125 7.91944 -0.912837
              }
            }
          }
        }
      }
    }
  }
  JOINT LeftUpLeg
  {
    OFFSET 7.35773 -1.34921 -1.13182
    CHANNELS 3 Zrotation Xrotation Yrotation
    JOINT LeftUpLegRoll
    {
      OFFSET 0 18.9169 0
      CHANNELS 3 Zrotation Xrotation Yrotation
      JOINT LeftLeg
      {
        OFFSET 0 23.4255 0
        CHANNELS 3 Zrotation Xrotation Yrotation
        JOINT LeftLegRoll
        {
          OFFSET 0 23.7195 0
          CHANNELS 3 Zrotation Xrotation Yrotation
          JOINT LeftFoot
          {
            OFFSET 0 19.3444 0
            CHANNELS 3 Zrotation Xrotation Yrotation
            JOINT LeftToeBase
            {
              OFFSET 0 16.3526 0
              CHANNELS 3 Zrotation Xrotation Yrotation
              End Site
              {
                OFFSET -0.0310629 7.91944 -0.912836
              }
            }
          }
        }
      }
    }
  }
}
MOTION
Frames: 9
Frame Time: 0.00208333
39.4564 98.7413 3.61181 0.797474 -3.46154 0.969864 0.0775251 -1.48173 0.148182 0.156459 1.04809 0.273591 0.153277 2.69316 0.271096 -0.430572 23.4074 -0.729585 -1.6374 -8.75681 -1.17512 76.392 -0.93096 -2.42207 92.8963 16.4778 30.1563 -4.1404e-006 8.78084e-007 2.5603e-007 7.24542 0.0559195 0.114581 -1.26153e-005 -2.10805e-006 -3.04211 8.02926 -4.95141 0.697679 -66.9962 2.90372 -0.511953 -101.449 9.89765 -18.469 -3.97569e-016 1.59028e-015 -3.18055e-015 -9.32503 0.12427 0.506506 6.38909e-006 1.79926e-006 3 -8.029 -4.95145 -0.69767 175.248 -1.43965 1.96236 180 7.01541e-015 178.896 175.471 5.52668 179.78 1.60676e-006 -2.56942e-006 0.0638169 -18.2382 67.463 19.1113 8.13649 25.2327 -3.48774 -176.539 -1.39323 1.34939 4.54188e-006 -4.6773e-006 -1.17119 -3.23899 -9.45581 0.435311 7.72107e-007 -4.48212e-006 -0.126796 18.5963 67.7972 -19.3783 -8.13649 25.2327 3.48774 
39.4553 98.7304 3.60656 0.796015 -3.46805 0.963624 0.0788563 -1.48006 0.146818 0.15824 1.05171 0.27153 0.155081 2.69678 0.268994 -0.430144 23.4232 -0.733556 -1.65547 -8.76985 -1.18186 76.3645 -0.935205 -2.42119 92.9018 16.5623 30.1409 -4.1404e-006 8.78084e-007 2.5603e-007 7.21862 0.0557738 0.116896 -1.26153e-005 -2.10805e-006 -3.04212 8.02926 -4.95141 0.697679 -66.9981 2.90417 -0.51192 -101.413 9.95311 -18.4593 4.77083e-015 3.18055e-015 -0 -9.32241 0.120348 0.506637 6.38909e-006 1.79926e-006 3 -8.029 -4.95145 -0.69767 175.251 -1.43983 1.95849 180 7.01541e-015 178.896 175.475 5.52942 179.779 1.60676e-006 -2.56942e-006 0.0638169 -18.2371 67.4615 19.11 8.13649 25.2327 -3.48774 -176.538 -1.40093 1.34839 4.54188e-006 -4.6773e-006 -1.17119 -3.2391 -9.44617 0.435804 7.72107e-007 -4.48212e-006 -0.126796 18.5925 67.7925 -19.3742 -8.13649 25.2327 3.48774 
39.4534 98.7312 3.58303 0.794503 -3.47474 0.956998 0.080272 -1.47831 0.145411 0.160124 1.05548 0.269394 0.156988 2.70056 0.266816 -0.430509 23.439 -0.737361 -1.6734 -8.78325 -1.18867 76.336 -0.939501 -2.42023 92.9091 16.6475 30.1238 -4.1404e-006 8.78084e-007 2.5603e-007 7.1927 0.0556374 0.119056 -1.26153e-005 -2.10805e-006 -3.04214 8.02926 -4.95141 0.697679 -67.0007 2.90433 -0.511638 -101.376 10.009 -18.4497 3.97569e-016 0 -0 -9.31973 0.116206 0.506775 6.38909e-006 1.79926e-006 3 -8.029 -4.95145 -0.69767 175.254 -1.43993 1.95456 180 7.01541e-015 178.896 175.48 5.53257 179.779 1.60676e-006 -2.56942e-006 0.0638169 -18.2358 67.4599 19.1086 8.13649 25.2327 -3.48774 -176.537 -1.40905 1.34743 4.54188e-006 -4.6773e-006 -1.17119 -3.23917 -9.4362 0.436309 7.72107e-007 -4.48212e-006 -0.126796 18.5885 67.7877 -19.3699 -8.13649 25.2327 3.48774 
39.4494 98.733 3.57713 0.792956 -3.48156 0.950104 0.0817469 -1.47652 0.143976 0.16208 1.05937 0.267207 0.158967 2.70444 0.264584 -0.431428 23.4549 -0.741051 -1.69124 -8.79689 -1.19553 76.3068 -0.943834 -2.41922 92.9179 16.7331 30.1057 -4.1404e-006 8.78084e-007 2.5603e-007 7.1674 0.0555073 0.121108 -1.26153e-005 -2.10805e-006 -3.04216 8.02926 -4.95141 0.697679 -67.0037 2.90428 -0.511183 -101.338 10.0652 -18.4402 -8.74653e-015 0 -3.18055e-015 -9.317 0.111909 0.506916 6.38909e-006 1.79926e-006 3 -8.029 -4.95145 -0.69767 175.257 -1.43996 1.95061 180 7.01541e-015 178.896 175.486 5.53598 179.779 1.60676e-006 -2.56942e-006 0.0638169 -18.2343 67.4581 19.1071 8.13649 25.2327 -3.48774 -176.536 -1.41748 1.3465 4.54188e-006 -4.6773e-006 -1.17119 -3.23921 -9.426 0.436823 7.72107e-007 -4.48212e-006 -0.126796 18.5845 67.7829 -19.3656 -8.13649 25.2327 3.48774 
39.4485 98.7335 3.57939 0.791387 -3.48845 0.943055 0.0832555 -1.4747 0.142524 0.164076 1.06332 0.264989 0.160988 2.70839 0.262322 -0.432663 23.4707 -0.744675 -1.70902 -8.81067 -1.20243 76.2771 -0.948187 -2.41817 92.9274 16.8189 30.087 -4.1404e-006 8.78084e-007 2.5603e-007 7.14245 0.055381 0.123099 -1.26153e-005 -2.10805e-006 -3.04219 8.02926 -4.95141 0.697679 -67.007 2.90412 -0.510628 -101.301 10.1216 -18.4307 -2.38542e-014 -9.54166e-015 -6.36111e-015 -9.31425 0.107523 0.50706 6.38909e-006 1.79926e-006 3 -8.029 -4.95145 -0.69767 175.26 -1.43997 1.94664 180 7.01541e-015 178.896 175.491 5.53954 179.778 1.60676e-006 -2.56942e-006 0.0638169 -18.2328 67.4562 19.1055 8.13649 25.2327 -3.48774 -176.534 -1.42607 1.34558 4.54188e-006 -4.6773e-006 -1.17119 -3.23923 -9.41565 0.437342 7.72107e-007 -4.48212e-006 -0.126796 18.5805 67.778 -19.3613 -8.13649 25.2327 3.48774 
39.4465 98.7371 3.5669 0.789811 -3.49536 0.935967 0.0847727 -1.47288 0.141067 0.166083 1.06728 0.262764 0.163018 2.71236 0.260051 -0.433976 23.4866 -0.748283 -1.7268 -8.82449 -1.20933 76.2474 -0.952545 -2.41712 92.9372 16.9049 30.0681 -4.1404e-006 8.78084e-007 2.5603e-007 7.11759 0.0552555 0.125074 -1.26153e-005 -2.10805e-006 -3.04222 8.02926 -4.95141 0.697679 -67.0104 2.90393 -0.510049 -101.263 10.178 -18.4213 -1.98785e-014 -3.18055e-015 -0 -9.31148 0.103116 0.507204 6.38909e-006 1.79926e-006 3 -8.029 -4.95145 -0.69767 175.263 -1.43996 1.94266 180 7.01541e-015 178.896 175.496 5.54314 179.778 1.60676e-006 -2.56942e-006 0.0638169 -18.2314 67.4543 19.1039 8.13649 25.2327 -3.48774 -176.533 -1.43471 1.34466 4.54188e-006 -4.6773e-006 -1.17119 -3.23925 -9.40528 0.437863 7.72107e-007 -4.48212e-006 -0.126796 18.5764 67.773 -19.357 -8.13649 25.2327 3.48774 
39.436 98.7352 3.55548 0.788243 -3.50224 0.928957 0.0862732 -1.47106 0.139619 0.16807 1.07122 0.260554 0.165029 2.71629 0.257796 -0.435127 23.5024 -0.751926 -1.7446 -8.83824 -1.21623 76.2178 -0.956893 -2.41608 92.9467 16.9907 30.0497 -4.1404e-006 8.78084e-007 2.5603e-007 7.09256 0.0551282 0.12708 -1.26153e-005 -2.10805e-006 -3.04224 8.02926 -4.95141 0.697679 -67.0136 2.90379 -0.509519 -101.226 10.2343 -18.4119 -6.75868e-015 0 -3.18055e-015 -9.30873 0.0987525 0.507347 6.38909e-006 1.79926e-006 3 -8.029 -4.95145 -0.69767 175.266 -1.43997 1.93869 180 7.01541e-015 178.896 175.501 5.54667 179.778 1.60676e-006 -2.56942e-006 0.0638169 -18.2299 67.4525 19.1023 8.13649 25.2327 -3.48774 -176.532 -1.44326 1.34374 4.54188e-006 -4.6773e-006 -1.17119 -3.23928 -9.39497 0.438381 7.72107e-007 -4.48212e-006 -0.126796 18.5724 67.7681 -19.3526 -8.13649 25.2327 3.48774 
39.4359 98.7389 3.5478 0.786699 -3.50902 0.922139 0.0877315 -1.46929 0.138192 0.170006 1.07507 0.258382 0.166989 2.72015 0.25558 -0.435878 23.5182 -0.755653 -1.76248 -8.85181 -1.22308 76.1888 -0.961215 -2.41508 92.9552 17.0763 30.0321 -4.1404e-006 8.78084e-007 2.5603e-007 7.06708 0.0549963 0.129164 -1.26153e-005 -2.10805e-006 -3.04226 8.02926 -4.95141 0.697679 -67.0166 2.9038 -0.509113 -101.189 10.2905 -18.4024 1.03368e-014 0 -0 -9.30601 0.0944997 0.507487 6.38909e-006 1.79926e-006 3 -8.029 -4.95145 -0.69767 175.269 -1.44002 1.93474 180 7.01541e-015 178.896 175.506 5.55001 179.777 1.60676e-006 -2.56942e-006 0.0638169 -18.2285 67.4507 19.1008 8.13649 25.2327 -3.48774 -176.531 -1.4516 1.3428 4.54188e-006 -4.6773e-006 -1.17119 -3.23933 -9.38483 0.438892 7.72107e-007 -4.48212e-006 -0.126796 18.5684 67.7633 -19.3484 -8.13649 25.2327 3.48774 
39.4347 98.7357 3.53886 0.785193 -3.51566 0.915628 0.0891224 -1.46756 0.136798 0.171861 1.0788 0.256268 0.168867 2.72387 0.253425 -0.435991 23.534 -0.759514 -1.78048 -8.8651 -1.22987 76.1606 -0.965496 -2.41415 92.9624 17.1615 30.0159 -4.1404e-006 8.78084e-007 2.5603e-007 7.0409 0.0548571 0.13137 -1.26153e-005 -2.10805e-006 -3.04228 8.02926 -4.95141 0.697679 -67.0189 2.90405 -0.508906 -101.152 10.3463 -18.3929 -8.34896e-015 0 -3.18055e-015 -9.30336 0.0904235 0.507623 6.38909e-006 1.79926e-006 3 -8.029 -4.95145 -0.69767 175.272 -1.44014 1.93084 180 7.01541e-015 178.896 175.511 5.55301 179.777 1.60676e-006 -2.56942e-006 0.0638169 -18.2272 67.4492 19.0994 8.13649 25.2327 -3.48774 -176.529 -1.45959 1.34183 4.54188e-006 -4.6773e-006 -1.17119 -3.23941 -9.37496 0.439394 7.72107e-007 -4.48212e-006 -0.126796 18.5645 67.7585 -19.3442 -8.13649 25.2327 3.48774 
